<?xml version="1.0" encoding="utf-8"?>
<!-- Generator: Adobe Illustrator 23.0.1, SVG Export Plug-In . SVG Version: 6.00 Build 0)  -->
<svg version="1.1" id="Layer_1" xmlns="http://www.w3.org/2000/svg" xmlns:xlink="http://www.w3.org/1999/xlink" x="0px" y="0px"
	 viewBox="0 0 1080 1080" style="enable-background:new 0 0 1080 1080;" xml:space="preserve">
<style type="text/css">
	.st0{fill-rule:evenodd;clip-rule:evenodd;fill:none;stroke:#0ff;stroke-width:10px;
	animation:anim 5s alternate linear;
	}
	@keyframes anim{
		0%{
			stroke-offset:100;
			stroke-dasharray:0,8000;
			stroke-linecap:round;
		}
		100%{
			stroke-offset:100;
			stroke-dasharray:8000,8000;
			stroke-linecap:round;

		}
	}
</style>
<path class="st0" d="M678.3,177.3l-177.5,3.8l47.4,109.1l281.3-0.4c52,0.3,85.3,5.2,103.1,45.2c19.4,43.7,2.4,85.7-25.9,105.8
	c-39.3,27.9-219.9,15.9-282.9,14.8L673.6,568l157.7-0.6c46.5,0,62.1,1.7,87.3,27.6c19.1,19.6,29.4,56.5,15.9,88.4
	c-27.1,63.7-104.3,50.5-181.5,50.5c-146.4,0-108.6,13.4-147.4-64.5c-11.7-23.4-23.1-46.6-35.2-70.5c-23.4-46.1-46.3-92.9-69.5-139.8
	C475.9,408.4,370.8,190.8,357.1,184L26.2,845.3l114.7,0.6c15.3,0,24.9-33.7,31.3-46.4c21.2-42,67-125.9,80.6-158.4
	c17.7-42.1,80.6-171.5,106.7-211.2c6,5.6,92,180.9,105.3,207.4c12.5,25,101.8,208.7,107.9,208.7l282.4,0
	c88.6,0,150.7-53.2,179.3-113.6c16.9-35.7,23.1-81.8,13.4-126.1c-13.3-60.6-43.7-77.7-52.7-95.1c54-57.7,83.2-156.4,29.1-238.3
	c-70.6-106.8-143.8-94.7-278.4-94.6L678.3,177.3z"/>
</svg>
